<?xml version="1.0" standalone="no"?>
<!DOCTYPE svg PUBLIC "-//W3C//DTD SVG 20010904//EN"
 "http://www.w3.org/TR/2001/REC-SVG-20010904/DTD/svg10.dtd">
<svg version="1.0" xmlns="http://www.w3.org/2000/svg"
 width="800.000000pt" height="800.000000pt" viewBox="0 0 800.000000 800.000000"
 preserveAspectRatio="xMidYMid meet">
<metadata>
Created by potrace 1.16, written by Peter Selinger 2001-2019
</metadata>
<g transform="translate(0.000000,800.000000) scale(0.100000,-0.100000)"
fill="#000000" stroke="none">
<path d="M49 7802 c-6 -41 29 -244 67 -387 8 -33 18 -71 20 -85 3 -14 12 -38
19 -55 7 -16 25 -61 40 -100 93 -239 214 -425 388 -598 67 -67 149 -140 182
-162 125 -82 151 -127 102 -173 -22 -21 -38 -24 -177 -41 l-55 -6 64 -50 c36
-28 83 -66 106 -85 54 -45 233 -176 295 -215 26 -16 79 -51 119 -77 39 -27 73
-48 75 -48 2 0 33 -16 68 -36 34 -20 88 -50 118 -66 61 -34 70 -43 70 -76 0
-45 -58 -70 -217 -92 -43 -6 -98 -14 -122 -18 l-45 -7 65 -55 c99 -86 147
-122 246 -188 51 -34 103 -68 115 -77 40 -28 241 -146 317 -186 40 -22 86 -48
102 -60 16 -11 65 -38 107 -59 43 -21 107 -55 142 -77 36 -22 90 -53 120 -70
30 -17 77 -44 103 -59 27 -16 70 -41 95 -56 53 -30 75 -62 66 -98 -8 -36 -29
-55 -76 -69 -26 -8 -63 -33 -99 -68 -145 -138 -155 -357 -24 -519 64 -78 232
-138 324 -114 134 35 179 62 240 143 48 63 71 125 71 193 0 68 27 104 77 104
31 0 44 -8 87 -54 67 -70 86 -98 122 -176 24 -54 29 -77 28 -140 -1 -90 -11
-116 -82 -208 -43 -54 -165 -145 -245 -181 -177 -81 -393 -81 -574 1 -88 40
-251 175 -322 267 -52 68 -156 265 -173 329 -5 20 -15 60 -22 89 -6 28 -15 55
-19 59 -10 11 -8 -282 4 -338 5 -27 13 -67 18 -90 37 -188 188 -376 376 -470
66 -33 189 -72 300 -97 147 -32 426 -34 686 -5 53 6 58 4 92 -26 43 -37 132
-214 167 -330 12 -41 39 -127 60 -190 21 -63 50 -155 65 -205 15 -49 33 -105
41 -123 8 -18 14 -41 14 -50 0 -10 4 -22 9 -27 4 -6 32 -79 60 -164 29 -84 56
-161 61 -170 18 -32 80 -173 80 -182 0 -22 16 -5 33 34 10 23 33 71 52 107 18
36 46 108 63 160 16 52 45 138 65 190 31 86 64 189 104 325 8 28 18 57 22 65
5 9 12 31 16 50 4 19 11 40 15 45 4 6 17 42 28 80 32 111 59 179 108 276 68
132 99 150 218 129 45 -8 158 -12 308 -12 254 0 294 6 493 69 167 54 312 155
392 273 56 84 85 138 101 190 9 28 39 167 43 198 1 4 0 75 -1 157 -2 156 -4
157 -35 25 -10 -41 -22 -82 -26 -90 -4 -8 -17 -37 -30 -65 -13 -27 -34 -66
-47 -85 -13 -19 -30 -49 -38 -66 -25 -52 -185 -222 -244 -259 -112 -70 -170
-98 -230 -109 -14 -3 -43 -10 -65 -15 -60 -16 -188 -13 -269 5 -194 43 -410
213 -449 352 -20 75 -9 169 29 245 35 69 130 186 161 198 72 27 109 -5 115
-101 5 -84 41 -160 103 -223 59 -59 101 -81 194 -102 66 -15 76 -15 139 0 118
30 194 84 244 175 54 99 61 221 18 331 -27 70 -117 163 -180 186 -64 24 -80
40 -80 84 0 31 6 43 37 68 21 17 41 31 44 31 4 0 31 16 60 35 30 19 57 35 61
35 4 0 37 18 73 40 36 22 68 40 72 40 3 0 14 6 22 14 9 8 64 39 122 69 59 29
119 63 135 74 16 11 65 39 109 63 44 24 103 58 130 75 28 18 77 47 110 65 33
18 76 45 95 59 19 15 60 42 90 61 70 43 235 170 277 212 l32 33 -57 12 c-31 6
-73 12 -92 13 -46 1 -169 27 -197 41 -23 12 -37 50 -28 77 2 10 31 31 62 48
127 68 300 170 340 198 23 17 63 44 90 61 57 35 249 179 348 262 l70 58 -95
11 c-101 11 -133 23 -150 54 -24 45 2 83 96 140 40 24 159 123 204 170 116
120 264 326 319 444 59 128 159 399 153 418 -1 4 3 20 10 35 6 15 10 32 9 36
-1 5 7 45 18 90 10 45 22 113 26 151 7 74 9 73 -46 34 -64 -43 -348 -188 -370
-188 -6 0 -45 -16 -87 -36 -42 -20 -88 -41 -102 -47 -14 -5 -36 -15 -50 -22
-14 -7 -54 -22 -89 -34 -35 -12 -80 -30 -100 -40 -20 -10 -67 -31 -106 -45
-38 -15 -78 -31 -87 -37 -10 -5 -25 -9 -34 -9 -9 0 -28 -6 -42 -14 -15 -7 -40
-20 -57 -28 -16 -9 -66 -30 -110 -47 -44 -17 -116 -50 -160 -72 -44 -23 -116
-60 -160 -82 -203 -103 -469 -350 -663 -616 -86 -118 -155 -215 -233 -331 -90
-134 -118 -163 -151 -158 -20 3 -23 9 -26 58 -3 40 2 66 16 95 22 44 34 72 52
125 14 39 102 252 131 317 11 24 19 46 19 51 0 5 9 27 20 50 11 22 20 44 20
47 0 13 -114 54 -192 69 -119 23 -693 27 -754 5 -11 -4 -61 -10 -110 -13 -49
-3 -118 -12 -154 -20 -255 -55 -347 -61 -485 -34 -152 31 -261 48 -410 63
-222 22 -725 26 -766 5 -8 -5 -33 -11 -55 -13 -37 -4 -154 -51 -154 -62 0 -2
14 -34 30 -70 17 -36 30 -69 30 -74 0 -5 21 -55 46 -112 25 -57 53 -124 61
-149 9 -25 19 -49 23 -55 4 -5 15 -35 25 -65 9 -30 24 -65 32 -78 8 -13 15
-49 16 -80 l2 -57 -31 -3 c-28 -3 -38 4 -78 54 -26 31 -59 78 -74 103 -30 52
-164 248 -185 271 -8 8 -33 42 -58 75 -145 198 -367 422 -531 533 -49 34 -353
192 -368 192 -10 0 -88 34 -196 86 -39 19 -75 34 -81 34 -5 0 -65 23 -134 51
-68 28 -151 61 -184 74 -121 46 -134 52 -275 115 -47 21 -113 50 -147 64 -34
14 -97 46 -139 71 -41 25 -79 45 -83 45 -3 0 -30 15 -59 34 -28 19 -52 32 -53
28z"/>
<path d="M469 5459 c0 -8 -5 -70 -10 -139 -18 -244 -22 -443 -10 -560 6 -63
16 -189 21 -280 6 -91 17 -230 26 -310 8 -80 19 -183 24 -230 16 -153 72 -446
89 -463 4 -4 14 -1 21 8 16 20 64 19 85 -1 19 -19 45 -79 45 -105 0 -21 57
-196 98 -300 16 -41 41 -108 56 -149 60 -171 238 -491 382 -685 111 -150 107
-148 141 -85 33 61 108 177 131 203 12 14 25 17 46 13 42 -9 60 -29 102 -110
19 -39 51 -92 70 -119 19 -26 34 -49 34 -52 0 -2 12 -22 28 -43 216 -306 496
-564 799 -737 34 -19 68 -35 75 -35 15 0 58 79 58 106 0 27 56 74 87 74 37 -1
45 -8 137 -115 43 -49 97 -110 120 -135 45 -48 259 -295 314 -364 18 -22 55
-63 82 -91 27 -27 93 -101 147 -164 348 -403 332 -387 348 -370 34 38 184 209
210 240 17 20 63 74 104 120 40 46 112 129 160 183 47 55 130 148 183 207 54
59 113 126 130 148 71 88 271 312 291 326 12 8 31 15 43 15 26 0 84 -45 84
-65 0 -22 41 -106 54 -111 7 -3 41 11 75 31 35 19 64 35 66 35 10 0 201 134
250 175 250 212 519 535 634 763 35 69 86 106 119 86 22 -13 80 -98 133 -192
35 -62 43 -71 56 -60 29 24 168 214 235 323 57 91 210 387 238 460 5 11 25 65
45 120 20 55 40 108 46 117 5 10 9 26 9 36 0 10 4 22 9 27 5 6 19 48 31 95 11
47 25 101 30 121 18 68 95 107 127 63 7 -9 14 -16 16 -13 13 15 73 329 87 454
5 44 14 112 20 150 6 39 11 88 10 110 0 22 4 72 10 110 5 39 12 122 15 185 3
63 10 171 16 240 15 165 -1 740 -20 740 -9 0 -102 -78 -166 -138 -22 -21 -60
-53 -85 -72 -25 -19 -65 -53 -90 -76 -25 -23 -85 -75 -135 -116 -127 -105
-120 -91 -105 -206 7 -53 16 -133 20 -177 4 -44 12 -105 18 -135 55 -279 45
-492 -35 -780 -31 -112 -137 -306 -238 -435 -81 -103 -303 -330 -403 -411 -40
-32 -96 -78 -125 -102 -131 -107 -393 -303 -519 -387 -37 -25 -69 -49 -73 -54
-3 -5 -56 -46 -118 -91 -181 -131 -229 -166 -282 -209 -27 -22 -71 -58 -97
-78 -122 -99 -195 -159 -218 -183 -14 -14 -70 -65 -124 -115 -125 -114 -150
-139 -266 -266 -52 -57 -98 -105 -102 -107 -5 -2 -8 -9 -8 -15 0 -7 -21 -34
-45 -60 -25 -27 -63 -74 -85 -105 -22 -32 -65 -91 -94 -132 -30 -41 -55 -80
-55 -85 -2 -23 -77 -85 -103 -85 -32 0 -76 49 -132 144 -21 36 -45 71 -52 77
-8 6 -33 39 -56 73 -43 63 -89 119 -193 236 -33 37 -85 95 -115 130 -119 135
-533 495 -734 639 -34 23 -74 56 -91 71 -16 15 -60 48 -97 72 -37 25 -88 62
-115 82 -74 57 -164 123 -208 153 -49 33 -323 239 -386 291 -223 180 -432 385
-539 527 -86 114 -203 328 -230 420 -11 38 -25 84 -30 100 -29 93 -52 332 -40
428 5 45 12 105 15 132 7 62 29 226 50 365 25 174 26 169 -57 243 -40 36 -92
80 -115 99 -58 46 -286 242 -350 302 -30 28 -53 43 -54 35z"/>
</g>
</svg>
