<?xml version="1.0" standalone="no"?>
<!DOCTYPE svg PUBLIC "-//W3C//DTD SVG 20010904//EN"
 "http://www.w3.org/TR/2001/REC-SVG-20010904/DTD/svg10.dtd">
<svg version="1.0" xmlns="http://www.w3.org/2000/svg"
 width="800.000000pt" height="800.000000pt" viewBox="0 0 800.000000 800.000000"
 preserveAspectRatio="xMidYMid meet">
<metadata>
Created by potrace 1.16, written by Peter Selinger 2001-2019
</metadata>
<g transform="translate(0.000000,800.000000) scale(0.100000,-0.100000)"
fill="#000000" stroke="none">
<path d="M1320 6975 c0 -16 -19 -22 -95 -29 -72 -6 -168 -31 -206 -52 -52 -30
-156 -138 -183 -191 -50 -100 -57 -143 -63 -393 -6 -231 8 -523 27 -558 4 -10
13 -35 18 -57 30 -114 37 -135 44 -135 4 0 8 -17 8 -37 0 -22 9 -49 20 -63 11
-14 20 -34 20 -46 0 -12 11 -42 25 -68 14 -26 25 -57 25 -69 0 -13 14 -38 31
-57 18 -19 38 -49 45 -66 8 -18 18 -35 24 -39 5 -3 10 -15 10 -26 0 -11 7 -22
15 -25 8 -4 15 -12 15 -20 0 -17 28 -103 40 -126 6 -10 10 -29 10 -42 0 -14 4
-28 10 -31 12 -8 35 -59 51 -113 9 -30 24 -52 48 -70 48 -36 76 -64 90 -90 6
-12 18 -22 25 -22 18 0 96 -85 96 -105 0 -8 5 -24 10 -35 6 -11 15 -29 20 -40
6 -11 10 -28 10 -38 0 -10 4 -22 10 -28 5 -5 11 -101 14 -214 2 -113 9 -243
14 -290 6 -47 15 -137 21 -200 12 -122 36 -253 52 -282 5 -10 9 -31 9 -47 0
-38 23 -126 45 -172 11 -24 30 -41 56 -52 21 -9 39 -22 39 -29 0 -6 6 -19 13
-27 8 -9 19 -32 26 -51 40 -110 102 -252 134 -305 7 -11 29 -50 50 -88 22 -37
42 -67 46 -67 4 0 15 -15 23 -34 9 -18 30 -49 47 -69 17 -19 31 -39 31 -45 0
-26 89 -100 139 -117 52 -17 134 -17 187 0 17 5 25 0 42 -26 28 -45 171 -202
207 -227 17 -12 44 -34 60 -50 17 -15 66 -53 110 -85 44 -31 91 -66 105 -76
13 -11 62 -34 107 -52 72 -28 90 -31 141 -25 l58 7 51 -58 c28 -32 69 -78 92
-103 23 -25 52 -58 64 -74 12 -15 43 -51 69 -78 26 -27 57 -63 70 -81 13 -17
40 -49 61 -70 20 -22 37 -41 37 -44 0 -5 9 -17 57 -72 109 -126 295 -121 398
11 22 28 54 65 70 82 17 18 42 47 57 66 14 19 52 61 82 94 31 32 62 66 69 76
6 9 35 42 62 72 28 30 76 85 108 121 53 60 61 65 83 56 36 -13 72 -11 124 7
50 17 109 41 126 52 207 134 355 265 484 427 39 49 48 55 70 50 59 -16 131
-16 178 -1 64 21 99 58 197 204 20 30 41 59 46 65 32 36 113 186 173 322 7 17
18 41 25 55 6 14 21 56 34 95 20 65 25 71 66 92 58 29 88 90 111 228 4 28 12
61 18 75 31 81 66 429 80 787 7 190 9 203 30 226 12 13 22 27 22 33 0 34 26
90 56 119 19 19 38 35 42 35 5 0 41 33 82 74 70 71 110 131 110 166 0 9 7 25
15 36 8 10 15 29 15 41 0 12 5 25 10 28 6 3 10 19 10 35 0 16 5 32 10 35 6 3
10 15 10 26 0 23 20 61 38 72 6 4 12 17 12 27 0 11 4 20 8 20 4 0 16 20 26 45
11 25 25 50 33 56 14 12 37 58 49 99 4 14 17 41 30 60 12 19 28 64 34 100 7
36 16 73 21 82 5 10 9 25 9 33 0 8 5 15 10 15 6 0 10 17 10 39 0 22 6 44 15
51 8 7 15 25 15 41 0 16 4 29 9 29 16 0 33 233 34 450 0 217 -14 385 -33 404
-5 5 -10 20 -10 33 0 13 -7 26 -15 29 -8 4 -15 15 -15 25 0 10 -4 19 -10 19
-5 0 -10 6 -10 13 0 7 -18 30 -39 51 -36 35 -43 38 -94 37 -59 0 -67 7 -67 72
0 24 -4 27 -32 27 -18 1 -44 7 -58 15 -14 8 -52 14 -87 15 -52 0 -65 4 -75 20
-12 19 -24 20 -168 20 -144 0 -156 -1 -168 -20 -10 -16 -23 -20 -71 -20 -33 0
-63 -4 -66 -10 -3 -5 -21 -10 -38 -10 -54 0 -104 -19 -144 -55 -21 -19 -43
-35 -49 -35 -6 0 -24 -6 -40 -14 -16 -7 -44 -20 -61 -27 -18 -8 -33 -17 -33
-21 0 -5 -9 -8 -21 -8 -11 0 -33 -8 -47 -19 -15 -10 -37 -22 -49 -25 -13 -4
-23 -12 -23 -17 0 -5 -9 -9 -20 -9 -11 0 -20 -4 -20 -9 0 -5 -20 -12 -45 -15
-24 -4 -47 -11 -50 -17 -4 -5 -19 -9 -35 -9 -16 0 -35 -6 -42 -14 -19 -19 -74
-46 -92 -46 -21 0 -116 -42 -116 -51 0 -4 -15 -10 -32 -14 -45 -10 -98 -34
-131 -62 -16 -13 -37 -23 -48 -23 -10 0 -19 -4 -19 -9 0 -5 -11 -12 -24 -15
-14 -3 -31 -12 -38 -20 -27 -27 -78 -46 -122 -46 -25 0 -48 -4 -51 -10 -3 -5
-26 -10 -51 -10 -24 0 -44 5 -44 10 0 6 -41 10 -104 10 -59 0 -108 -4 -111
-10 -4 -6 -62 -10 -140 -10 -78 0 -136 -4 -140 -10 -4 -6 -92 -10 -230 -10
-138 0 -226 4 -230 10 -4 6 -65 10 -150 10 -85 0 -146 4 -150 10 -3 6 -42 10
-86 10 -46 0 -79 -4 -79 -10 0 -6 -26 -10 -59 -10 -33 0 -63 5 -66 10 -3 6
-30 10 -58 10 -41 0 -59 6 -82 25 -30 24 -80 51 -142 75 -18 7 -33 16 -33 20
0 6 -62 36 -127 60 -18 7 -33 16 -33 21 0 5 -11 9 -25 9 -14 0 -25 4 -25 10 0
5 -17 12 -37 15 -47 8 -96 30 -113 50 -7 8 -25 15 -41 15 -15 0 -30 4 -33 9
-3 5 -27 12 -53 16 -27 4 -50 10 -53 13 -8 10 -39 28 -100 58 -30 14 -86 41
-124 60 -37 19 -73 34 -80 34 -6 0 -17 9 -24 20 -7 11 -17 20 -22 20 -6 0 -23
9 -38 20 -17 12 -51 22 -90 26 -34 4 -65 11 -68 15 -3 5 -27 9 -54 9 -58 0
-80 7 -80 26 0 11 -30 14 -160 14 -135 0 -160 -2 -160 -15z m235 -725 c83 -56
266 -143 455 -217 36 -13 79 -31 95 -38 17 -7 75 -31 130 -53 215 -86 387
-180 465 -252 19 -18 54 -49 78 -68 24 -19 48 -45 54 -56 11 -20 10 -20 -7 -6
-11 8 -46 41 -79 73 -121 117 -297 211 -642 342 -97 37 -315 131 -424 183 -64
30 -156 87 -165 102 -3 5 -18 10 -32 10 -25 0 -25 -1 -20 -57 26 -275 114
-514 258 -704 62 -82 176 -192 224 -216 52 -27 49 -37 -13 -50 -31 -7 -69 -12
-84 -13 -43 0 -37 -38 12 -74 42 -31 64 -64 32 -47 -10 5 -35 25 -56 44 -29
27 -37 41 -34 63 3 26 8 30 52 36 84 12 84 10 -30 123 -206 205 -319 429 -370
735 -15 91 -18 163 -7 173 15 16 52 4 108 -33z m4994 10 c5 -34 -16 -177 -40
-272 -55 -220 -157 -417 -293 -563 -25 -27 -46 -44 -46 -37 0 7 9 20 21 30 33
27 124 151 159 217 18 33 36 65 40 70 12 17 68 167 89 240 21 70 36 158 48
268 5 53 4 57 -15 57 -12 0 -47 -18 -79 -41 -73 -50 -163 -94 -373 -180 -58
-23 -109 -46 -114 -51 -6 -4 -16 -8 -22 -8 -17 0 -261 -102 -361 -150 -44 -22
-84 -40 -87 -40 -16 0 -167 -108 -230 -163 -92 -82 -212 -228 -313 -382 -56
-84 -52 -80 -58 -73 -6 6 38 121 81 216 13 29 24 59 24 67 0 7 5 17 10 20 6 3
10 21 10 39 0 32 -3 35 -69 59 -112 42 -268 52 -481 33 -176 -17 -211 -21
-372 -50 -48 -9 -93 -14 -100 -11 -7 3 -42 9 -78 14 -36 6 -92 15 -125 21 -33
5 -139 17 -235 26 -141 12 -198 13 -290 4 -113 -10 -232 -40 -258 -65 -18 -16
-10 -40 67 -224 34 -79 60 -146 57 -148 -5 -5 -29 26 -113 147 -37 52 -84 115
-105 139 -21 24 -36 47 -32 50 3 3 18 -9 32 -27 15 -18 44 -52 65 -76 20 -24
37 -48 37 -54 0 -6 5 -14 12 -18 18 -11 4 52 -26 118 -14 31 -26 63 -26 71 0
44 120 88 290 107 132 15 360 -4 650 -53 81 -13 118 -13 200 2 103 19 182 29
370 47 146 14 191 15 270 5 121 -16 235 -49 266 -78 28 -26 27 -36 -11 -118
-31 -65 -41 -105 -26 -105 6 0 11 4 11 9 0 41 284 337 387 404 76 49 272 146
370 182 35 13 80 32 101 41 68 30 77 33 192 79 190 76 352 154 421 205 53 38
92 38 98 0z m-429 -929 c-11 -17 -29 -33 -40 -36 -22 -7 -26 -20 -9 -31 6 -3
34 -9 63 -13 48 -6 51 -8 53 -36 2 -25 -6 -37 -55 -78 -69 -57 -97 -79 -139
-109 -18 -13 -61 -43 -95 -68 -35 -25 -103 -70 -151 -99 -90 -54 -103 -74 -51
-79 25 -2 76 -13 137 -29 25 -7 21 -44 -11 -78 -32 -36 -112 -102 -157 -130
-28 -18 -108 -70 -145 -95 -44 -29 -111 -70 -116 -70 -3 0 -19 -9 -34 -20 -16
-11 -52 -33 -82 -49 -124 -67 -237 -130 -276 -155 -23 -14 -46 -26 -52 -26 -6
0 -13 -7 -16 -15 -4 -9 16 -37 54 -75 69 -69 92 -122 92 -215 0 -104 -62 -197
-166 -250 -98 -50 -174 -44 -274 20 -62 40 -103 91 -122 153 -7 23 -18 42 -24
42 -13 0 -42 -40 -61 -84 -39 -88 21 -179 167 -249 57 -28 74 -31 150 -31 76
0 93 4 160 36 123 57 236 195 282 341 22 71 37 144 38 178 0 70 56 83 85 20
14 -33 18 -69 18 -198 1 -149 -3 -175 -33 -258 -22 -61 -58 -121 -97 -161 -51
-54 -58 -49 -9 7 39 46 90 145 107 209 16 57 16 354 0 393 -16 40 -45 33 -49
-13 -4 -45 -39 -175 -58 -220 -66 -152 -159 -256 -283 -316 -67 -33 -81 -36
-160 -36 -75 0 -95 4 -153 30 -111 51 -198 146 -198 218 0 13 5 36 12 51 14
34 87 133 98 133 4 0 11 -21 15 -47 7 -48 37 -110 72 -148 80 -89 246 -107
346 -38 80 55 117 129 117 230 0 112 -54 201 -144 238 -38 16 -39 17 -20 35
17 17 166 104 239 140 17 8 41 22 55 31 27 18 73 45 160 92 30 17 67 38 82 49
14 10 29 18 32 18 6 0 28 14 174 112 84 57 182 147 182 168 0 17 -26 25 -172
52 -38 6 -68 15 -68 18 0 3 17 14 38 24 94 44 307 182 375 242 15 14 39 30 52
36 14 6 25 15 25 19 0 4 20 22 45 40 54 39 63 79 18 79 -16 1 -55 6 -88 13
l-59 13 34 24 c19 13 37 27 40 30 6 7 64 49 68 50 2 0 -6 -13 -18 -29z m-4144
-267 c71 -62 231 -168 342 -226 45 -24 82 -46 82 -49 0 -3 -33 -11 -72 -18
-137 -23 -168 -32 -168 -50 0 -32 182 -185 280 -236 16 -8 48 -28 72 -44 44
-29 102 -62 198 -113 30 -16 60 -33 66 -39 6 -5 40 -24 75 -43 120 -63 233
-132 236 -143 3 -7 -13 -21 -34 -32 -111 -57 -162 -197 -121 -334 16 -52 102
-140 155 -158 54 -19 150 -17 204 4 77 29 148 121 164 210 4 20 11 37 16 37
27 0 109 -134 109 -179 0 -71 -101 -174 -214 -218 -156 -60 -311 -21 -440 109
-46 46 -119 151 -129 183 -3 11 -17 50 -31 86 -14 37 -31 104 -38 148 -9 62
-16 81 -27 79 -21 -4 -30 -48 -37 -188 -8 -158 6 -252 51 -347 58 -124 159
-211 301 -261 131 -47 326 -63 503 -43 75 9 101 6 101 -10 0 -6 9 -22 20 -37
19 -26 93 -221 111 -293 4 -19 21 -73 38 -120 16 -46 38 -115 50 -154 12 -38
31 -89 42 -112 10 -24 19 -45 19 -48 0 -3 16 -42 37 -86 53 -117 68 -110 147
72 24 54 109 304 155 454 35 112 100 284 116 303 32 40 36 42 78 35 70 -13
357 -9 421 6 102 23 174 50 238 91 59 37 88 45 57 16 -21 -20 -158 -90 -204
-104 -117 -36 -299 -49 -445 -34 -111 12 -127 6 -149 -54 -7 -21 -22 -57 -32
-79 -9 -22 -23 -58 -30 -80 -6 -22 -15 -49 -19 -60 -4 -11 -13 -40 -20 -65
-45 -159 -150 -448 -196 -535 -27 -52 -35 -60 -59 -60 -25 0 -33 8 -60 60 -17
33 -37 76 -44 95 -22 61 -39 103 -59 150 -6 14 -36 106 -67 205 -62 197 -73
230 -85 260 -5 11 -19 49 -32 84 -32 87 -41 92 -158 79 -101 -11 -278 -4 -363
13 -241 49 -399 184 -464 394 -23 76 -24 353 -1 425 12 40 17 45 43 45 l30 0
16 -100 c29 -178 86 -300 187 -400 164 -162 369 -176 537 -37 48 40 85 97 85
133 0 25 -28 89 -53 122 -16 20 -37 23 -37 5 0 -6 -15 -41 -32 -77 -28 -54
-43 -71 -92 -103 -72 -46 -126 -62 -188 -55 -143 17 -262 150 -262 292 1 80
28 138 98 208 31 31 56 60 56 65 0 5 -10 14 -22 20 -13 6 -41 22 -63 34 -83
48 -152 86 -197 112 -120 66 -149 83 -243 140 -278 169 -401 274 -383 327 4
13 94 38 139 39 15 0 32 6 38 14 10 12 6 18 -21 32 -44 22 -246 156 -278 184
-14 12 -37 29 -52 38 -27 16 -45 42 -29 42 4 0 21 -12 37 -26z m-141 -321 c34
-32 80 -72 101 -90 21 -18 34 -32 28 -32 -7 -1 -41 25 -77 57 -94 83 -119 101
-133 95 -43 -16 -39 -594 6 -963 9 -72 14 -103 39 -235 7 -33 17 -89 24 -125
10 -55 16 -65 34 -68 17 -3 24 3 29 22 3 14 10 26 14 26 4 0 27 -60 50 -132
71 -223 156 -402 263 -560 37 -54 58 -93 48 -87 -29 19 -154 224 -210 343 -53
115 -60 131 -102 256 -23 69 -44 127 -45 129 -2 2 -10 -2 -18 -8 -8 -7 -25
-11 -37 -9 -31 4 -34 16 -90 343 -47 274 -69 707 -49 938 7 78 14 145 17 150
12 20 52 2 108 -50z m4429 49 c2 -4 10 -97 17 -207 10 -172 9 -233 -5 -435
-17 -236 -25 -306 -45 -435 -27 -164 -45 -260 -60 -312 -10 -38 -15 -43 -41
-43 -17 0 -30 5 -30 10 0 6 -3 10 -8 10 -9 0 -21 -31 -51 -125 -12 -38 -26
-79 -31 -90 -5 -11 -17 -40 -26 -65 -35 -85 -141 -285 -193 -360 -127 -184
-151 -210 -184 -197 -7 3 -33 37 -56 77 -28 46 -48 70 -58 68 -8 -2 -26 -23
-39 -48 -13 -25 -38 -61 -55 -80 -35 -40 -31 -31 25 60 23 36 46 74 52 85 17
31 29 28 50 -12 43 -82 80 -133 95 -133 9 0 33 21 55 46 162 191 304 480 400
812 6 20 22 14 26 -10 2 -15 11 -24 25 -26 25 -4 31 15 53 148 6 41 15 93 20
115 49 225 79 686 62 959 -11 165 -18 189 -53 163 -84 -61 -85 -62 -39 -14 41
44 81 60 94 39z m-4175 -272 c35 -33 67 -60 72 -60 4 0 17 -13 28 -28 17 -25
19 -36 11 -88 -47 -324 -52 -393 -40 -519 13 -135 69 -283 147 -387 68 -91 75
-103 31 -57 -45 48 -138 196 -138 221 0 8 -4 18 -8 23 -5 6 -19 46 -31 91 -21
73 -22 96 -18 235 3 85 10 179 15 209 5 30 15 100 22 154 l14 99 -40 36 c-22
20 -65 57 -95 83 -30 26 -49 47 -44 47 6 0 39 -26 74 -59z m3749 -69 l-42 -39
13 -103 c8 -57 18 -129 23 -159 16 -98 21 -321 8 -380 -21 -96 -59 -192 -115
-285 -49 -84 -105 -152 -105 -129 0 6 14 23 30 39 17 16 30 33 30 38 0 4 11
23 24 40 33 43 83 156 107 242 22 79 27 290 9 404 -13 82 -27 181 -35 244 -6
47 -5 50 36 88 23 21 46 39 50 39 5 0 -11 -18 -33 -39z m-305 -1196 c-9 -15
-119 -115 -193 -175 -69 -56 -340 -260 -345 -260 -4 0 -238 -174 -262 -194 -7
-6 -45 -36 -84 -66 -40 -30 -88 -69 -106 -87 -80 -76 -156 -136 -145 -116 7
12 40 46 74 75 34 29 89 78 122 108 34 30 79 69 100 85 22 17 53 41 70 55 17
14 42 34 56 43 37 25 89 63 135 97 22 17 65 47 95 67 30 21 73 51 96 68 22 16
53 39 68 50 90 64 271 212 300 244 22 24 31 27 19 6z m-2908 -135 c33 -28 83
-67 110 -86 28 -19 77 -54 110 -79 70 -51 112 -81 157 -113 64 -44 283 -207
312 -232 32 -27 123 -107 208 -183 54 -48 104 -108 77 -92 -14 9 -69 58 -141
125 -57 54 -327 264 -439 342 -34 24 -78 55 -98 70 -20 15 -63 46 -96 69 -33
24 -62 45 -65 49 -3 3 -25 21 -50 40 -71 55 -91 72 -140 118 -59 57 -22 38 55
-28z m325 -931 c25 -18 47 -36 50 -39 7 -8 119 -75 157 -94 50 -25 61 -21 87
38 13 29 28 56 34 60 11 7 77 -63 68 -72 -4 -3 -20 7 -36 23 l-30 28 -25 -56
c-18 -41 -30 -57 -44 -57 -63 0 -344 198 -460 325 -89 98 -55 84 52 -21 56
-55 122 -116 147 -135z"/>
</g>
</svg>
